<?xml version="1.0" encoding="UTF-8"?>
<svg id="Capa_1" data-name="Capa 1" xmlns="http://www.w3.org/2000/svg" viewBox="0 0 960 900">
  <defs>
    <style>
      .cls-1 {
        fill: #fff;
        stroke-width: 0px;
      }
    </style>
  </defs>
  <path class="cls-1" d="m130.12,565.52v-292h67.16c83.85,0,125.56,41.3,125.56,146s-41.71,146-125.56,146h-67.16Zm35.88-31.29h31.29c60.69,0,89.06-28.57,89.06-114.71s-28.37-114.71-89.06-114.71h-31.29v229.43Z"/>
  <path class="cls-1" d="m545.39,565.52l-23.99-81.97h-99.07l-23.78,81.97h-37.33l88.85-292h43.8l88.85,292h-37.33Zm-114.09-112.84h81.13l-24.82-84.89c-5.63-19.19-10.64-36.92-15.64-55.48-5.21,18.56-10.43,36.29-16.06,55.48l-24.61,84.89Z"/>
  <path class="cls-1" d="m821.74,463.11v30.87h-40.05v71.54h-34.83v-71.54h-117.22l-7.09-20.02,85.72-200.44h39l-82.8,189.59h82.39v-99.49h34.83v99.49h40.05Z"/>
</svg>